<?xml version="1.0" encoding="UTF-8" standalone="no"?>
<svg
   xmlns:dc="http://purl.org/dc/elements/1.1/"
   xmlns:cc="http://creativecommons.org/ns#"
   xmlns:rdf="http://www.w3.org/1999/02/22-rdf-syntax-ns#"
   xmlns:svg="http://www.w3.org/2000/svg"
   xmlns="http://www.w3.org/2000/svg"
   xmlns:sodipodi="http://sodipodi.sourceforge.net/DTD/sodipodi-0.dtd"
   xmlns:inkscape="http://www.inkscape.org/namespaces/inkscape"
   width="8.4666662mm"
   height="9.0675383mm"
   viewBox="0 0 8.4666662 9.0675383"
   version="1.1"
   id="svg957"
   inkscape:version="1.0.1 (3bc2e813f5, 2020-09-07)"
   sodipodi:docname="favicon_logo.svg">
  <defs
     id="defs951" />
  <sodipodi:namedview
     id="base"
     pagecolor="#ffffff"
     bordercolor="#666666"
     borderopacity="1.0"
     inkscape:pageopacity="0.0"
     inkscape:pageshadow="2"
     inkscape:zoom="11.2"
     inkscape:cx="15.58812"
     inkscape:cy="22.170072"
     inkscape:document-units="mm"
     inkscape:current-layer="layer1"
     inkscape:document-rotation="0"
     showgrid="false"
     inkscape:window-width="1848"
     inkscape:window-height="1043"
     inkscape:window-x="72"
     inkscape:window-y="387"
     inkscape:window-maximized="1" />
  <metadata
     id="metadata954">
    <rdf:RDF>
      <cc:Work
         rdf:about="">
        <dc:format>image/svg+xml</dc:format>
        <dc:type
           rdf:resource="http://purl.org/dc/dcmitype/StillImage" />
        <dc:title></dc:title>
      </cc:Work>
    </rdf:RDF>
  </metadata>
  <g
     inkscape:label="Layer 1"
     inkscape:groupmode="layer"
     id="layer1"
     transform="translate(-13.153571,-52.918612)">
    <g
       id="g915"
       transform="translate(-82.37069,44.451946)">
      <rect
         style="fill:#000000;stroke-width:1.40502"
         id="rect872"
         width="8.4666662"
         height="9.0675383"
         x="95.524261"
         y="8.4666662" />
      <g
         id="g906"
         transform="matrix(0.5264227,0,0,0.5264227,46.447157,0.63909809)"
         style="fill:#ffffff">
        <path
           id="path193-3"
           style="font-style:normal;font-variant:normal;font-weight:bold;font-stretch:normal;font-size:10.5833px;line-height:1.25;font-family:Cabin;-inkscape-font-specification:'Cabin Bold';white-space:pre;fill:#ffffff;fill-opacity:1;stroke:none;stroke-width:0.998879"
           d="m 94.382872,19.781706 v 7.400065 h 1.352888 v -0.01964 a 1.45,1.45 0 0 1 -0.381889,-0.980302 1.45,1.45 0 0 1 0.381889,-0.979786 v -5.420342 z" />
        <path
           id="path187-6"
           style="font-style:normal;font-variant:normal;font-weight:bold;font-stretch:normal;font-size:10.5833px;line-height:1.25;font-family:Cabin;-inkscape-font-specification:'Cabin Bold';white-space:pre;fill:#ffffff;fill-opacity:1;stroke:none;stroke-width:0.998879"
           d="m 97.975416,19.781706 v 5.545399 a 1.45,1.45 0 0 1 0.278537,0.854729 1.45,1.45 0 0 1 -0.278537,0.854211 v 0.145726 h 3.655074 a 1.4500017,1.4500017 0 0 1 -0.40049,-0.999937 1.4500017,1.4500017 0 0 1 0.0145,-0.205155 h -1.916165 v -6.194973 z" />
        <path
           id="path190-7"
           style="font-style:normal;font-variant:normal;font-weight:bold;font-stretch:normal;font-size:9.87778px;line-height:1.25;font-family:Cabin;-inkscape-font-specification:'Cabin Bold';white-space:pre;fill:#ffffff;fill-opacity:1;stroke:none;stroke-width:1.02906"
           d="m 106.31599,19.781706 c -0.71493,0 -1.35015,0.15417 -1.90583,0.462505 -0.55567,0.304946 -0.99304,0.735198 -1.31154,1.290878 -0.31511,0.552289 -0.47284,1.201239 -0.47284,1.946652 0,0.453418 0.0572,0.871489 0.17001,1.254703 a 1.4500017,1.4500017 0 0 1 1.33429,1.44539 1.4500017,1.4500017 0 0 1 -0.0455,0.361733 c 0.0915,0.0638 0.18539,0.125063 0.28474,0.18087 0.5489,0.30494 1.18412,0.457334 1.90582,0.457334 0.34561,0 0.67783,-0.03885 0.99633,-0.116787 0.32188,-0.07454 0.6165,-0.174358 0.88418,-0.299723 l -0.14211,-1.240234 c -0.27445,0.121978 -0.54749,0.220014 -0.81855,0.294555 -0.27106,0.07455 -0.57763,0.112139 -0.91984,0.112136 -0.4913,3e-6 -0.90302,-0.105151 -1.23507,-0.315224 -0.32866,-0.210074 -0.57605,-0.499872 -0.74207,-0.869198 -0.16603,-0.36932 -0.24908,-0.79119 -0.24908,-1.265555 0,-0.474354 0.0848,-0.896235 0.25425,-1.265556 0.16941,-0.369324 0.42035,-0.659125 0.7524,-0.869199 0.33544,-0.210073 0.75198,-0.314708 1.25006,-0.314708 0.33544,0 0.63896,0.03886 0.91002,0.116787 0.27445,0.07455 0.54037,0.170799 0.79788,0.289388 l 0.14211,-1.239716 c -0.22701,-0.118591 -0.49649,-0.217146 -0.80822,-0.295074 -0.31172,-0.08132 -0.65536,-0.121957 -1.03146,-0.121957 z" />
        <circle
           style="fill:#ffffff;stroke-width:0.392732"
           id="path79-5"
           cx="96.804054"
           cy="26.181841"
           r="1" />
        <circle
           style="fill:#ffffff;stroke-width:0.392732"
           id="path79-4-3"
           cx="102.67995"
           cy="26.181841"
           r="1" />
      </g>
    </g>
  </g>
</svg>
