<?xml version="1.0" encoding="UTF-8" standalone="no"?>
<svg
   xmlns:dc="http://purl.org/dc/elements/1.1/"
   xmlns:cc="http://creativecommons.org/ns#"
   xmlns:rdf="http://www.w3.org/1999/02/22-rdf-syntax-ns#"
   xmlns:svg="http://www.w3.org/2000/svg"
   xmlns="http://www.w3.org/2000/svg"
   xmlns:sodipodi="http://sodipodi.sourceforge.net/DTD/sodipodi-0.dtd"
   xmlns:inkscape="http://www.inkscape.org/namespaces/inkscape"
   viewBox="0 0 928.51 249.31"
   version="1.1"
   id="svg54"
   sodipodi:docname="fn_web.svg"
   inkscape:version="1.0.1 (3bc2e813f5, 2020-09-07)">
  <metadata
     id="metadata58">
    <rdf:RDF>
      <cc:Work
         rdf:about="">
        <dc:format>image/svg+xml</dc:format>
        <dc:type
           rdf:resource="http://purl.org/dc/dcmitype/StillImage" />
      </cc:Work>
    </rdf:RDF>
  </metadata>
  <sodipodi:namedview
     pagecolor="#ffffff"
     bordercolor="#666666"
     borderopacity="1"
     objecttolerance="10"
     gridtolerance="10"
     guidetolerance="10"
     inkscape:pageopacity="0"
     inkscape:pageshadow="2"
     inkscape:window-width="1706"
     inkscape:window-height="782"
     id="namedview56"
     showgrid="false"
     inkscape:zoom="0.70812376"
     inkscape:cx="287.19776"
     inkscape:cy="0.57120898"
     inkscape:window-x="72"
     inkscape:window-y="387"
     inkscape:window-maximized="0"
     inkscape:current-layer="Ebene_1-2" />
  <defs
     id="defs4">
    <style
       id="style2">.cls-1{fill:#fff;}</style>
  </defs>
  <g
     id="Ebene_2"
     data-name="Ebene 2"
     style="fill:#de8787">
    <g
       id="Ebene_1-2"
       data-name="Ebene 1"
       style="fill:#de8787">
      <g
         id="g906">
        <path
           class="cls-1"
           d="M310.28,68.74h56.14V81.06H323.53v24h38v12.32h-38v31.34H310.28Z"
           id="path6"
           style="fill:#de8787" />
        <path
           class="cls-1"
           d="M376,90.66h13.14v13.08c3.56-8.68,10.13-14.62,20.15-14.18v14.07h-.75c-11.42,0-19.4,7.59-19.4,23v22.1H376Z"
           id="path8"
           style="fill:#de8787" />
        <path
           class="cls-1"
           d="M414.55,132v-.22c0-12.53,9.7-18.69,23.6-18.69a46.68,46.68,0,0,1,15.3,2.42v-1.43c0-8.25-5-12.65-14.12-12.65a39,39,0,0,0-16.27,3.63l-3.55-10.44a48.52,48.52,0,0,1,21.55-4.73c8.51,0,14.87,2.31,18.85,6.48,4.21,4.18,6.15,10.34,6.15,17.93v34.42H453.34v-7.26c-3.88,4.73-9.8,8.47-18.53,8.47C424.14,149.93,414.55,143.66,414.55,132Zm10.24-63.64H438V81.45H424.79Zm28.88,59.47v-4a35.55,35.55,0,0,0-12.94-2.31c-8.4,0-13.36,3.63-13.36,9.67v.23c0,5.6,4.85,8.79,11.1,8.79C447.09,140.25,453.67,135.19,453.67,127.83ZM445.8,68.36h13.25V81.45H445.8Z"
           id="path10"
           style="fill:#de8787" />
        <path
           class="cls-1"
           d="M480.16,90.66H493.3v8.9c3.67-5.38,8.95-10.11,17.78-10.11,12.82,0,20.26,8.79,20.26,22.21v37.06h-13v-33c0-9-4.42-14.19-12.18-14.19-7.54,0-12.82,5.39-12.82,14.41v32.77H480.16Z"
           id="path12"
           style="fill:#de8787" />
        <path
           class="cls-1"
           d="M545.55,68.44h13.14v48l23.6-25.73h15.84L575.5,114.3l23.38,34.42h-15.3l-16.81-25.18-8.08,8.57v16.61H545.55Z"
           id="path14"
           style="fill:#de8787" />
        <path
           class="cls-1"
           d="M607.17,69.1h14V81.75h-14Zm.43,21.56h13.14v58.06H607.6Z"
           id="path16"
           style="fill:#de8787" />
        <path
           class="cls-1"
           d="M631.71,141.13l5.82-9c6.25,4.73,12.83,7.15,18.65,7.15,5.6,0,8.83-2.42,8.83-6.27v-.21c0-4.51-6-6-12.71-8.14-8.41-2.42-17.78-5.94-17.78-16.94v-.22c0-11.11,8.94-17.81,20.25-17.81a38.89,38.89,0,0,1,20.91,6.6l-5.17,9.45c-5.5-3.41-11.32-5.5-16.06-5.5-5.06,0-8,2.53-8,5.72v.22c0,4.29,6.14,6,12.82,8.25,8.3,2.64,17.67,6.49,17.67,16.93v.22c0,12.21-9.26,18.26-21.12,18.26A38.82,38.82,0,0,1,631.71,141.13Z"
           id="path18"
           style="fill:#de8787" />
        <path
           class="cls-1"
           d="M685.79,120v-.22c0-16.5,12.5-30.35,29.63-30.35,10.67,0,17.35,4.07,22.74,10L730,108.36c-4-4.18-8.19-7.26-14.66-7.26-9.48,0-16.48,8.36-16.48,18.48v.22c0,10.34,7,18.58,17,18.58,6.15,0,10.56-2.86,14.77-7.15l7.86,7.92c-5.6,6.38-12.17,10.89-23.27,10.89C698.29,150,685.79,136.51,685.79,120Z"
           id="path20"
           style="fill:#de8787" />
        <path
           class="cls-1"
           d="M748.92,68.44h13.15V99.56c3.66-5.38,8.94-10.11,17.78-10.11,12.82,0,20.25,8.79,20.25,22.21v37.06h-13v-33c0-9-4.41-14.19-12.17-14.19-7.55,0-12.82,5.39-12.82,14.41v32.77H748.92Z"
           id="path22"
           style="fill:#de8787" />
        <path
           class="cls-1"
           d="M811.29,119.91v-.22c0-16.61,11.53-30.24,27.8-30.24,18.11,0,27.27,14.51,27.27,31.23,0,1.21-.11,2.42-.22,3.74H824.33c1.4,9.45,8,14.73,16.38,14.73,6.36,0,10.88-2.42,15.41-6.93l7.65,6.93C858.38,145.75,851,150,840.5,150,824,150,811.29,137.83,811.29,119.91Zm42.14-4.29c-.87-8.58-5.82-15.29-14.44-15.29-8,0-13.58,6.27-14.77,15.29Z"
           id="path24"
           style="fill:#de8787" />
        <path
           class="cls-1"
           d="M310.28,171h12.28L363,224.23V171h13v77h-11.1l-41.6-54.77V248h-13Z"
           id="path26"
           style="fill:#de8787" />
        <path
           class="cls-1"
           d="M388.6,231.27v-.22c0-12.53,9.7-18.69,23.6-18.69a46.68,46.68,0,0,1,15.3,2.42v-1.43c0-8.25-5-12.65-14.12-12.65a39,39,0,0,0-16.27,3.63l-3.56-10.45a48.74,48.74,0,0,1,21.56-4.73c8.51,0,14.87,2.32,18.85,6.49,4.21,4.18,6.14,10.34,6.14,17.93V248H427.39v-7.26c-3.88,4.73-9.81,8.47-18.53,8.47C398.19,249.2,388.6,242.93,388.6,231.27Zm39.11-4.18v-4a35.45,35.45,0,0,0-12.93-2.31c-8.4,0-13.36,3.63-13.36,9.67v.22c0,5.61,4.85,8.8,11.1,8.8C421.14,239.52,427.71,234.46,427.71,227.09Z"
           id="path28"
           style="fill:#de8787" />
        <path
           class="cls-1"
           d="M451.19,219.29v-.22c0-16.5,12.5-30.35,29.63-30.35,10.67,0,17.35,4.06,22.74,10l-8.19,8.91c-4-4.18-8.19-7.26-14.66-7.26-9.48,0-16.48,8.36-16.48,18.48v.22c0,10.33,7,18.58,17,18.58,6.14,0,10.56-2.86,14.76-7.15l7.87,7.92c-5.6,6.38-12.18,10.89-23.28,10.89C463.69,249.31,451.19,235.78,451.19,219.29Z"
           id="path30"
           style="fill:#de8787" />
        <path
           class="cls-1"
           d="M514.32,167.71h13.14v31.12c3.67-5.39,8.95-10.11,17.78-10.11,12.82,0,20.26,8.79,20.26,22.21V248h-13V215c0-9-4.42-14.19-12.17-14.19-7.55,0-12.83,5.39-12.83,14.41V248H514.32Z"
           id="path32"
           style="fill:#de8787" />
        <path
           class="cls-1"
           d="M579.71,189.92h13.14V203c3.56-8.69,10.13-14.62,20.15-14.18V202.9h-.75c-11.42,0-19.4,7.59-19.4,23V248H579.71Z"
           id="path34"
           style="fill:#de8787" />
        <path
           class="cls-1"
           d="m 623.10999,168.37 h 14 V 181 h -14 z m 0.44,21.55 h 13.14 V 248 h -13.14 z"
           id="path36"
           style="fill:#de8787" />
        <path
           class="cls-1"
           d="m 646.95496,217.98 c 0,0 0,-0.14667 0,-0.22 0,-16.5 12.5,-30.35 29.63,-30.35 10.67,0 17.35,4.06 22.73,10 l -8.19,8.91 c -4,-4.18 -8.18,-7.26 -14.65,-7.26 -9.48,0 -16.49,8.36 -16.49,18.48 v 0.22 c 0,10.33 7,18.58 17,18.58 6.14,0 10.56,-2.86 14.76,-7.15 l 7.87,7.92 c -5.61,6.38 -12.18,10.89 -23.28,10.89 -8.56706,0 -16.22692,-2.55202 -21.61795,-8.0321 -5.45084,-5.54088 -7.76205,-21.9879 -7.76205,-21.9879 z"
           id="path38"
           style="fill:#de8787"
           sodipodi:nodetypes="cssccssssccssc" />
        <path
           class="cls-1"
           d="m 709.4599,167.71 h 13.15 v 31.12 c 3.66,-5.39 8.94,-10.11 17.78,-10.11 12.82,0 20.26,8.79 20.26,22.21 V 248 h -13 v -33 c 0,-9 -4.42,-14.19 -12.18,-14.19 -7.54,0 -12.82,5.39 -12.82,14.41 V 248 h -13.19 z"
           id="path40"
           style="fill:#de8787" />
        <path
           class="cls-1"
           d="M775.38,231.93V201.36h-7.22V189.92h7.22V174h13v15.94h15.3v11.44h-15.3v28.48c0,5.17,2.58,7.26,7,7.26a17.21,17.21,0,0,0,8.08-2V246a22.15,22.15,0,0,1-11.74,3C782.17,249,775.38,244.69,775.38,231.93Z"
           id="path42"
           style="fill:#de8787" />
        <path
           class="cls-1"
           d="M811.29,219.18V219c0-16.61,11.53-30.24,27.8-30.24,18.11,0,27.27,14.51,27.27,31.23,0,1.21-.11,2.42-.22,3.74H824.33c1.4,9.45,8,14.73,16.38,14.73,6.36,0,10.88-2.42,15.41-6.93l7.65,6.93c-5.39,6.6-12.82,10.89-23.27,10.89C824,249.31,811.29,237.1,811.29,219.18Zm42.14-4.29c-.87-8.58-5.82-15.29-14.44-15.29-8,0-13.58,6.27-14.76,15.29Z"
           id="path44"
           style="fill:#de8787" />
        <path
           class="cls-1"
           d="M877.33,189.92h13.15v8.91c3.66-5.39,8.94-10.11,17.78-10.11,12.82,0,20.25,8.79,20.25,22.21V248h-13V215c0-9-4.42-14.19-12.18-14.19-7.54,0-12.82,5.39-12.82,14.41V248H877.33Z"
           id="path46"
           style="fill:#de8787" />
        <path
           class="cls-1"
           d="M190,.27Q185,0,180.15,0C80.81,0,0,79.4,0,177a171.57,171.57,0,0,0,15.19,71,147,147,0,0,1-9.58-52.72A149.55,149.55,0,0,1,190.06,50Z"
           id="path48"
           style="fill:#de8787" />
        <path
           class="cls-1"
           d="M152.81,102.75a49.53,49.53,0,0,0-17.29-3.19c-8.53,0-13.41,4.39-13.41,14.14v5.12l67.76,0v17.08c8.53-11,19.5-21,38.27-21,28,0,44.36,18.52,44.36,48.51V248H235.45V175.13c0-17.55-8.28-26.57-22.42-26.57s-23.16,9-23.16,26.57V248H152.82v-99H122.6v99h-37v-99H70.19V118.57H85.55v-8.28C85.55,95.91,89.2,85.42,96,78.6s16.82-10.24,30-10.24c11.7,0,20,1.48,26.8,3.67Z"
           id="path50"
           style="fill:#de8787" />
      </g>
    </g>
  </g>
</svg>
